<!-- <?xml version="1.0" encoding="UTF-8" standalone="no"?> -->


<svg
   version="1.1"
   id="svg1"
   width="100.48"
   height="86.559998"
   viewBox="0 0 100.48 86.559998"
   xmlns="http://www.w3.org/2000/svg"
   xmlns:svg="http://www.w3.org/2000/svg">
  <defs
     id="defs1" />
  <g
     id="g1"
     transform="translate(-25.805855,-23.409004)">
    <path
       style="fill:currentColor"
       d="m 25.805854,109.82732 c 0,-0.12846 1.437833,-2.63339 11.031306,-19.218316 1.628902,-2.816 4.248201,-7.352 5.820665,-10.08 l 2.85903,-4.96 15.2645,-0.0831 c 8.39547,-0.04571 15.2645,-0.01499 15.2645,0.06827 0,0.08326 -1.02315,1.920653 -2.27367,4.083103 -1.25051,2.16245 -3.49418,6.055727 -4.98593,8.651727 l -2.71227,4.72 h -5.13087 -5.13087 l 0.46614,-0.72 c 1.22121,-1.886282 4.40747,-7.605519 4.40747,-7.911267 0,-0.235665 -1.58127,-0.317059 -4.99007,-0.256859 l -4.99006,0.08813 -7.40994,12.87203 -7.409931,12.872032 -5.04,0.008 c -2.772,0.004 -5.04,-0.0558 -5.04,-0.13371 z m 20.480001,-0.0339 c 0,-0.0965 1.116,-2.10986 2.48,-4.47403 l 2.48,-4.29848 29.84,-0.006 c 16.412,-0.003 29.840005,-0.0683 29.840005,-0.14441 0,-0.0761 -4.26295,-7.528135 -9.47323,-16.559994 -5.210275,-9.031799 -12.503975,-21.677502 -16.208225,-28.101502 -3.70425,-6.424 -7.2533,-12.577242 -7.88677,-13.673871 -0.63348,-1.096628 -1.22873,-1.996628 -1.32279,-2 -0.0941,-0.0034 -0.39789,0.389871 -0.67519,0.873871 -0.2773,0.484 -4.21317,7.324 -8.74638,15.2 l -8.24219,14.32 h -5.09387 c -4.75834,0 -5.07307,-0.03689 -4.77792,-0.56 8.08532,-14.330393 27.2253,-46.96 27.54595,-46.96 0.24589,0 4.24255,6.591514 9.02227,14.88 4.71946,8.184 9.78937,16.968 11.26647,19.52 10.745485,18.565069 29.951875,51.931746 29.951875,52.034476 0,0.069 -18,0.12552 -40.000005,0.12552 -22,0 -40,-0.079 -40,-0.17555 z"
       id="path1" />
  </g>
</svg>
